<svg xmlns="http://www.w3.org/2000/svg" viewBox="0 0 1473.83 416.24"><defs><style>.cls-1{fill:#fff;}.cls-2{fill:#ff367a;}</style></defs><g id="Layer_2" data-name="Layer 2"><g id="Layer_1-2" data-name="Layer 1"><path class="cls-1" d="M1186.28,163.85A58.45,58.45,0,0,0,1204,121q0-25.12-17.76-42.71-17.58-17.76-42.71-17.76H1058.9v121h84.67Q1168.7,181.43,1186.28,163.85ZM1083.09,84.67h60.48A36.12,36.12,0,0,1,1179.85,121a36.14,36.14,0,0,1-36.28,36.29h-60.48Z"/><rect class="cls-1" x="1007.87" y="60.48" width="24.19" height="120.95"/><path class="cls-1" d="M926.23,181.43q25.13,0,42.71-17.58A58.45,58.45,0,0,0,986.7,121V0H962.51V121a36.29,36.29,0,1,1-72.57,0V60.48H865.75V121q0,25.14,17.58,42.9Q901.09,181.43,926.23,181.43Z"/><path class="cls-1" d="M835.51,163.67q17.58-17.58,17.58-42.71T835.32,78.25q-17.57-17.77-42.71-17.77a58.45,58.45,0,0,0-42.9,17.77Q732.15,95.82,732.14,121a60,60,0,0,0,60.47,60.47,63.48,63.48,0,0,0,19.85-3l15.12,27.21h24.19l-21-37.61Q833.25,165.94,835.51,163.67Zm-16.82-17.39-14-25.32H780.52l19.84,35.53a39.7,39.7,0,0,1-7.75.75A36.12,36.12,0,0,1,756.33,121a36.29,36.29,0,1,1,62.36,25.32Z"/><path class="cls-2" d="M828.9,121a35.17,35.17,0,0,1-10.21,25.32l-14-25.32H780.52l19.84,35.53a39.7,39.7,0,0,1-7.75.75A36.12,36.12,0,0,1,756.33,121a36.29,36.29,0,1,1,72.57,0Z"/><path class="cls-1" d="M688.48,108.86H640.1A11.66,11.66,0,0,1,628,96.76a11.53,11.53,0,0,1,3.41-8.5,11.81,11.81,0,0,1,8.69-3.59h72.57V60.48H640.1a36.14,36.14,0,0,0-36.29,36.28,36.16,36.16,0,0,0,36.29,36.29h48.38a12.28,12.28,0,0,1,12.1,12.09,11.85,11.85,0,0,1-3.6,8.7,11.55,11.55,0,0,1-8.5,3.4H543.34v24.19H688.48a36.16,36.16,0,0,0,36.29-36.29,36.14,36.14,0,0,0-36.29-36.28Z"/><path class="cls-1" d="M404.62,163.85A58.45,58.45,0,0,0,422.38,121q0-25.12-17.76-42.71Q387,60.48,361.91,60.48H277.24v121h84.67Q387.05,181.43,404.62,163.85ZM301.43,84.67h60.48A36.12,36.12,0,0,1,398.19,121a36.14,36.14,0,0,1-36.28,36.29H301.43Z"/><rect class="cls-1" x="187.85" y="108.86" width="66.52" height="24.19"/><polygon class="cls-1" points="254.38 157.24 157.61 157.24 157.61 84.67 254.38 84.67 254.38 60.48 133.42 60.48 133.42 181.43 254.38 181.43 254.38 157.24"/><path class="cls-1" d="M1456.07,264.67q-17.58-17.76-42.72-17.76h-84.66v121h84.66q25.14,0,42.72-17.57a58.48,58.48,0,0,0,17.76-42.9Q1473.83,282.25,1456.07,264.67Zm-17,68.42a35,35,0,0,1-25.71,10.58h-60.47V271.1h60.47a36.35,36.35,0,0,1,25.71,62Z"/><path class="cls-2" d="M1449.64,307.39a36.12,36.12,0,0,1-36.29,36.28h-60.47V271.1h60.47a36.12,36.12,0,0,1,36.29,36.29Z"/><rect class="cls-1" x="1277.66" y="246.9" width="24.19" height="120.95"/><path class="cls-1" d="M1232.3,307.38a36.29,36.29,0,1,1-72.57,0V246.9h-24.19v60.48q0,25.14,17.58,42.9,17.76,17.58,42.9,17.58t42.71-17.58a58.45,58.45,0,0,0,17.76-42.9V186.43H1232.3Z"/><path class="cls-1" d="M1105.3,350.09q17.58-17.56,17.58-42.71t-17.77-42.71q-17.56-17.76-42.71-17.77a58.49,58.49,0,0,0-42.9,17.77q-17.57,17.58-17.57,42.71t17.57,42.9a58.79,58.79,0,0,0,42.9,17.58,63.48,63.48,0,0,0,19.85-3l28.53,51.41H1135l-34.39-61.8Q1103,352.36,1105.3,350.09Zm-16.82-17.39-14-25.32h-24.19l19.84,35.53a39.7,39.7,0,0,1-7.75.76,36.15,36.15,0,1,1,26.08-11Z"/><path class="cls-1" d="M958.27,295.29H909.89a11.66,11.66,0,0,1-12.1-12.1,11.55,11.55,0,0,1,3.4-8.5,11.84,11.84,0,0,1,8.7-3.6h72.57V246.9H909.89a36.29,36.29,0,1,0,0,72.58h48.38a12.26,12.26,0,0,1,12.09,12.09,11.84,11.84,0,0,1-3.59,8.7,11.56,11.56,0,0,1-8.5,3.4H813.12v24.19H958.27a36.29,36.29,0,1,0,0-72.57Z"/><path class="cls-1" d="M631.7,246.9H547v121H631.7q25.13,0,42.71-17.58a58.45,58.45,0,0,0,17.76-42.9q0-25.14-17.76-42.71Q656.83,246.91,631.7,246.9Zm25.7,86.18a35,35,0,0,1-25.7,10.59H571.22V271.09H631.7a36.35,36.35,0,0,1,25.7,62Z"/><polygon class="cls-1" points="420.03 367.86 447.24 367.86 480.51 298.31 513.77 367.86 540.98 367.86 480.51 240.86 420.03 367.86"/><polygon class="cls-1" points="293.03 367.86 413.98 367.86 413.98 343.67 317.22 343.67 317.22 271.1 413.98 271.1 413.98 246.91 293.03 246.91 293.03 367.86"/><rect class="cls-1" x="347.46" y="295.29" width="66.52" height="24.19"/><path class="cls-1" d="M261.28,264.67q-17.58-17.76-42.71-17.76h-76.4L79.37,133.05h5.29A36.12,36.12,0,0,0,121,96.77,36.12,36.12,0,0,0,84.66,60.48H0v121H24.19V84.67H84.66a12.26,12.26,0,0,1,12.1,12.1,11.84,11.84,0,0,1-3.59,8.69,11.53,11.53,0,0,1-8.51,3.4H42.33L133.9,275.33v92.53h84.67q25.13,0,42.71-17.57A58.48,58.48,0,0,0,279,307.39Q279,282.25,261.28,264.67Zm-17,68.42a35,35,0,0,1-25.7,10.58H158.09V271.1h60.48a36.35,36.35,0,0,1,25.7,62Z"/><path class="cls-2" d="M254.85,307.39a36.12,36.12,0,0,1-36.28,36.28H158.09V271.1h60.48a36.12,36.12,0,0,1,36.28,36.29Z"/></g></g></svg>